<?xml version="1.0" encoding="UTF-8" standalone="yes"?>
<svg version="1.2" baseProfile="tiny-ps" viewBox="0 0 1339.6 1339.6" xml:space="preserve" xmlns="http://www.w3.org/2000/svg">
  <title>bimi-svg-tiny-12-ps</title>
  <g>
    <g>
      <path fill-rule="evenodd" d="M1002.1,787.9c-32.7,82.8-203.3,97.6-203.3-40.8c0-19.2,2.5-45.8,7.6-80&#xA;&#x9;&#x9;&#x9;c-32.2,46.7-20.9,91.2-20.9,91.2s-18-41.3-8.7-76.2c9.3-34.9,36.3-61.4,36.3-61.4s1.5-11.7-0.2-21.6c-1.7-9.9-3.4-38-56.7-31.2&#xA;&#x9;&#x9;&#x9;c-53.8,6.8-55.7-9.3-51.8-28.9c-7.4,0-15,0-22.7,0l-157.3,0.9c-23.9,82.7-39,136.6-45.4,161.8c-6.4,25.2-14,60.5-22.7,105.8&#xA;&#x9;&#x9;&#x9;c-1.2,6.2-2.6,10.1-4.4,11.5c-1.7,1.4-5.5,2.4-11.4,3c-7.6,0.6-13.8,1.6-18.8,3c-5,1.4-11.8,4.4-20.5,8.9l-5.2-1.7&#xA;&#x9;&#x9;&#x9;c11.1-27.8,20.2-53.7,27.5-77.7c7.3-24.1,19.9-68.4,38-132.9l23.6-81.6h-1.3l1.2-0.3l11.3-38.7l0.1,0l8.7-29.7&#xA;&#x9;&#x9;&#x9;c16.3-57.2,27.4-97.8,33.2-121.9c5.8-24.1,8.7-42.6,8.7-55.6c0-11.3-2.6-18.8-7.9-22.5c-5.2-3.7-13.7-5.5-25.3-5.5&#xA;&#x9;&#x9;&#x9;c-10.5,0-24.2,0.7-41.1,2.1c-16.9,1.4-30.3,3-40.2,4.7c-2.3-4.5-4.5-8.9-6.6-13.2c-2-4.2-3.1-8.4-3.1-12.3&#xA;&#x9;&#x9;&#x9;c0-6.8,3.5-10.2,10.5-10.2c71.1-2.8,115.3-5,132.8-6.4c17.5-1.4,28-2.1,31.5-2.1c5.2,0,9,0.6,11.4,1.7c2.3,1.1,3.5,3.4,3.5,6.8&#xA;&#x9;&#x9;&#x9;c0,1.1-0.6,4-1.7,8.5l-76,257.4c36.7,1.7,89.4,2.5,158.1,2.5c3.7,0,7.4,0,11.1,0c-2.9-2.6-5.9-5.7-5.2-11.4&#xA;&#x9;&#x9;&#x9;c0.8-6.8,6.8-7,6.8-10.3c0-6.5-8.9-5.6-10.4-12c-3.4-15.3,11.3-12.6,12.2-23.9c0.7-9.8-19.7-13.1-22.3-24.6&#xA;&#x9;&#x9;&#x9;c-2.5-11.1,4.8-23.4,30.6-36.3c25.8-13,25.2-26.6,25.2-26.6c-13.9-5.8-15.9-12.8-14.9-27.9c3.4,9.2,6.2,12.9,15.6,15.2&#xA;&#x9;&#x9;&#x9;c0,0-0.4-4.4,7.2-54.9c7.6-50.5,48.8-79.6,48.8-79.6c-50.7,40.4-35.1,109-44.2,150.7c-7,32.3-65.9,43.7-57.4,59.1&#xA;&#x9;&#x9;&#x9;c6.7,12.3,20.9,13.1,20,25.6c-0.9,12.5-11.2,11.2-8.4,18.6c2.8,7.4,13.2,7.4,12.2,16c-1.1,8.5-12.2,5.6-11.3,14.7&#xA;&#x9;&#x9;&#x9;c0.9,9.1,13.1,0.3,8.5,25.7c-4.6,25.4-2.6,27.4,11.5,29.9c14.1,2.5,34-7.9,67.7-0.9c33.8,7,30.8,55.2,30.8,55.2s32-43.9,40.4-79.7&#xA;&#x9;&#x9;&#x9;c8.3-35.8-16.2-91.2-16.2-91.2c57,65.8,48.2,117.6,6.5,171.6c-9.1,53.3-13.7,96.6-13.7,129.8&#xA;&#x9;&#x9;&#x9;C844.2,828.7,956.7,810.8,1002.1,787.9L1002.1,787.9z M855.2,159.3c-182.1,155.8,152.7,310.1,72.9,451.5&#xA;&#x9;&#x9;&#x9;c62.7-57.7,19.3-121.2-29.2-191.6c7.9-30.8,16.2-60.9,24.8-90c24.6-83.3,68.3-152.4,171.2-152.4c-62.2-32.5-165.8-22.2-211,142&#xA;&#x9;&#x9;&#x9;c-5.1,18.4-10.2,36.8-15.1,55.3C827.5,308.5,798.9,237.1,855.2,159.3L855.2,159.3z M126,935.2h56.1l-1.2,4.8&#xA;&#x9;&#x9;&#x9;c-5.6,0.5-9.6,1.5-12,3.2c-3,2.1-5.1,6-6.5,11.7l-8.8,36.7H207l8-35c0.4-2.1,0.6-4.4,0.6-6.8c0-5.8-5-9.1-14.9-9.8l1.1-4.8h52.8&#xA;&#x9;&#x9;&#x9;l-1.1,4.8c-8.2,0.8-13.2,5-14.9,12.5l-19.5,85.1c-0.4,2.1-0.6,4.4-0.6,6.8c0,3.7,1.5,6.3,4.4,7.8c2.1,1.1,5.5,1.8,10.1,2l-0.7,4.7&#xA;&#x9;&#x9;&#x9;h-56.5l1.1-4.7c10.6-0.8,16.8-5,18.6-12.6l9.3-40.6h-53.4l-1.9,7.8c-0.7,2.8-1.2,5.2-1.7,7.3l-2.8,12.6&#xA;&#x9;&#x9;&#x9;c-1.7,7.9-2.6,13.1-2.6,15.6c0,3.7,1.5,6.3,4.6,7.8c2.3,1.1,5.8,1.8,10.5,2l-1.1,4.7h-53.2l1.1-4.7c8.5-0.9,13.6-5.1,15.3-12.6&#xA;&#x9;&#x9;&#x9;l19.5-85.1c0.4-2.1,0.6-4.4,0.6-6.8c0-3.7-1.5-6.3-4.6-7.8c-2.2-1.1-5.6-1.8-10.3-2L126,935.2z M349.3,971.3H368l-12,48.1&#xA;&#x9;&#x9;&#x9;c-1.8,7.5-3.2,13.3-4.1,17.3c-1.1,4.7-1.6,7.7-1.6,8.8c0,2,1,2.9,2.9,2.9c2.7,0,6.7-3.6,11.8-10.8l2.8,2.8l-4.1,6&#xA;&#x9;&#x9;&#x9;c-1.9,2.6-3.8,4.9-5.8,6.8c-5.3,5.3-10.6,8-15.7,8c-6.8,0-10.2-3.8-10.2-11.3c0-0.8,0.1-1.8,0.2-2.9l0.4-2.8h-0.5&#xA;&#x9;&#x9;&#x9;c-3.5,5.1-7.4,9.1-11.7,12c-4.9,3.3-10.1,5-15.5,5c-7.2,0-12.8-2.5-16.8-7.6c-3.9-4.9-5.8-11.2-5.8-19.1&#xA;&#x9;&#x9;&#x9;c0-13.2,4.6-26.6,13.9-40.3c4.7-6.9,9.9-12.4,15.6-16.4c6.3-4.4,12.9-6.6,19.6-6.6c4,0,7.4,0.9,10.4,2.8c1.1,0.7,2.2,1.6,3.2,2.6&#xA;&#x9;&#x9;&#x9;l2,2.4L349.3,971.3z M326.6,1042.1c3.4-4.4,6.4-10.6,9.1-18.3c2.2-6.3,4-13.1,5.3-20.4c1.1-6.2,1.7-10.9,1.7-14.2&#xA;&#x9;&#x9;&#x9;c0-7.3-3.2-10.9-9.5-10.9c-3.9,0-7.8,2.1-11.7,6.4c-3.4,3.8-6.6,9-9.5,15.5c-5.9,13-8.9,24.8-8.9,35.1c0,9.8,3.5,14.8,10.4,14.8&#xA;&#x9;&#x9;&#x9;C318.2,1050.1,322.6,1047.4,326.6,1042.1z M420.7,976.1c5-0.6,9.7-1.2,14-1.9c3-0.5,6-1,9-1.5c4.9-0.9,7.7-1.3,8.4-1.3&#xA;&#x9;&#x9;&#x9;c0.4,0,0.8,0.1,1.2,0.4c0.5,0.3,0.7,0.7,0.7,1.1l-0.4,3.1l-3,15.5h0.4c4.7-5.8,9.4-10.4,14.1-13.8c5.9-4.2,11.7-6.2,17.4-6.2&#xA;&#x9;&#x9;&#x9;c12.2,0,18.2,5.4,18.2,16.2c0,2.8-0.7,7.4-2.1,13.5l-2.2,8.8c-0.7,2.6-1.5,5.6-2.5,9.1c-0.4,1.3-0.8,2.8-1.3,4.5l-4.9,18&#xA;&#x9;&#x9;&#x9;c-0.4,1.7-0.6,2.9-0.6,3.5c0,2.4,1,3.6,3.1,3.6c2.4,0,6.3-3.6,11.5-10.8l3.6,2.6c-1.8,2.7-3.6,5.1-5.2,7.2&#xA;&#x9;&#x9;&#x9;c-2.1,2.7-4.3,4.9-6.4,6.8c-5.3,4.7-10.8,7-16.5,7c-7.3,0-10.9-3.7-10.9-11.1c0-2.6,0.7-7,2.2-13.2c0.7-2.5,1.4-5.5,2.3-9&#xA;&#x9;&#x9;&#x9;c0.7-2.5,1.6-5.6,2.7-9.4l2.6-9.3l2.3-8.5c1.5-5.8,2.3-9.5,2.3-11.3c0-4.2-2.5-6.2-7.5-6.2c-4.5,0-9.5,3-14.9,9.1&#xA;&#x9;&#x9;&#x9;c-3.1,3.4-5.8,7.5-8.1,12.1c-2.6,5.3-4.6,11.1-6,17.6l-8.3,37h-20.7l13.9-60.3c1.5-6.9,2.3-11.5,2.3-13.9c0-3.3-3.7-4.9-11.1-4.9&#xA;&#x9;&#x9;&#x9;L420.7,976.1z M550.9,1059.1l22.1-96l2.8-11.3c1.1-4.3,1.6-7.1,1.6-8.4c0-3.9-3.6-5.9-10.8-5.9l0.7-4l26.9-3l5.2-0.4&#xA;&#x9;&#x9;&#x9;c0.9,0,1.4,0.4,1.4,1.2L590.5,977l-3.1,14.6l0.4,0.4c4.1-5.8,8.7-10.5,14-14.1c6.1-4.3,12.2-6.4,18.4-6.4&#xA;&#x9;&#x9;&#x9;c12.2,0,18.2,5.4,18.2,16.2c0,2.8-0.7,7.3-2.1,13.3l-4.7,17.5l-2.5,8.6c-0.9,3.3-1.7,5.9-2.2,7.8c-1.4,5.2-2.1,8.6-2.1,10.1&#xA;&#x9;&#x9;&#x9;c0,2.4,1,3.6,3.1,3.6c2.4,0,6.3-3.6,11.5-10.8l3.6,2.6c-1.8,2.7-3.6,5.1-5.2,7.2c-2.1,2.7-4.3,4.9-6.4,6.8c-5.3,4.7-10.8,7-16.4,7&#xA;&#x9;&#x9;&#x9;c-7.3,0-10.9-3.7-10.9-11.1c0-2.6,0.7-7,2.2-13.2c0.6-2.5,1.4-5.5,2.3-9c0.7-2.5,1.5-5.6,2.6-9.4l2.7-9.3l2.3-8.5&#xA;&#x9;&#x9;&#x9;c1.5-5.8,2.3-9.5,2.3-11.3c0-4.2-2.5-6.2-7.5-6.2c-4.3,0-9.3,2.8-15,8.4c-3.4,3.3-6.3,7.2-8.9,11.7c-3,5.3-5.2,11.3-6.8,18&#xA;&#x9;&#x9;&#x9;l-9.2,37.7H550.9z M752.1,971.3h18.8l-12,48.1c-1.8,7.5-3.2,13.3-4.1,17.3c-1.1,4.7-1.6,7.7-1.6,8.8c0,2,1,2.9,2.9,2.9&#xA;&#x9;&#x9;&#x9;c2.7,0,6.7-3.6,11.8-10.8l2.8,2.8l-4.1,6c-1.9,2.6-3.8,4.9-5.8,6.8c-5.3,5.3-10.6,8-15.7,8c-6.8,0-10.2-3.8-10.2-11.3&#xA;&#x9;&#x9;&#x9;c0-0.8,0.1-1.8,0.2-2.9l0.4-2.8h-0.5c-3.5,5.1-7.4,9.1-11.7,12c-4.9,3.3-10.1,5-15.5,5c-7.2,0-12.8-2.5-16.8-7.6&#xA;&#x9;&#x9;&#x9;c-3.9-4.9-5.8-11.2-5.8-19.1c0-13.2,4.6-26.6,13.9-40.3c4.7-6.9,9.9-12.4,15.6-16.4c6.3-4.4,12.9-6.6,19.6-6.6&#xA;&#x9;&#x9;&#x9;c4,0,7.4,0.9,10.4,2.8c1.1,0.7,2.2,1.6,3.2,2.6l2,2.4L752.1,971.3z M729.4,1042.1c3.4-4.4,6.4-10.6,9.1-18.3&#xA;&#x9;&#x9;&#x9;c2.2-6.3,4-13.1,5.3-20.4c1.1-6.2,1.7-10.9,1.7-14.2c0-7.3-3.2-10.9-9.5-10.9c-3.9,0-7.8,2.1-11.7,6.4c-3.4,3.8-6.6,9-9.5,15.5&#xA;&#x9;&#x9;&#x9;c-5.9,13-8.9,24.8-8.9,35.1c0,9.8,3.5,14.8,10.4,14.8C721,1050.1,725.4,1047.4,729.4,1042.1z M823.5,976.1c5-0.6,9.7-1.2,14-1.9&#xA;&#x9;&#x9;&#x9;c3-0.5,6-1,9-1.5c4.9-0.9,7.7-1.3,8.4-1.3c0.4,0,0.8,0.1,1.2,0.4c0.5,0.3,0.7,0.7,0.7,1.1l-0.4,3.1l-3,15.5h0.4&#xA;&#x9;&#x9;&#x9;c4.7-5.8,9.4-10.4,14.1-13.8c5.9-4.2,11.7-6.2,17.4-6.2c12.2,0,18.2,5.4,18.2,16.2c0,2.8-0.7,7.4-2.1,13.5l-2.2,8.8&#xA;&#x9;&#x9;&#x9;c-0.7,2.6-1.5,5.6-2.5,9.1c-0.4,1.3-0.8,2.8-1.3,4.5l-4.9,18c-0.4,1.7-0.6,2.9-0.6,3.5c0,2.4,1,3.6,3.1,3.6&#xA;&#x9;&#x9;&#x9;c2.4,0,6.3-3.6,11.5-10.8l3.6,2.6c-1.8,2.7-3.6,5.1-5.2,7.2c-2.1,2.7-4.3,4.9-6.4,6.8c-5.3,4.7-10.8,7-16.5,7&#xA;&#x9;&#x9;&#x9;c-7.3,0-10.9-3.7-10.9-11.1c0-2.6,0.7-7,2.2-13.2c0.7-2.5,1.4-5.5,2.3-9c0.7-2.5,1.6-5.6,2.7-9.4l2.6-9.3l2.3-8.5&#xA;&#x9;&#x9;&#x9;c1.5-5.8,2.3-9.5,2.3-11.3c0-4.2-2.5-6.2-7.5-6.2c-4.5,0-9.5,3-14.9,9.1c-3.1,3.4-5.8,7.5-8.1,12.1c-2.6,5.3-4.6,11.1-6,17.6&#xA;&#x9;&#x9;&#x9;l-8.3,37h-20.7l13.9-60.3c1.5-6.9,2.3-11.5,2.3-13.9c0-3.3-3.7-4.9-11.1-4.9L823.5,976.1z M1033.4,986.3h-9.7c1,3.7,1.5,7,1.5,10&#xA;&#x9;&#x9;&#x9;c0,9.9-3.4,17.8-10.3,23.8c-6.9,6.1-16.3,9.2-28.1,9.2c-1.7,0-3.1-0.1-4-0.2c-1.4,0.5-2.8,1.5-4.2,3.2c-1.4,1.7-2,3.3-2,4.6&#xA;&#x9;&#x9;&#x9;c0,2.6,2.2,4.4,6.6,5.7l14.5,2.9c6.5,1.4,11.3,3.3,14.6,5.8c4.4,3.4,6.6,8.2,6.6,14.4c0,9.7-4.2,17.3-12.6,22.9&#xA;&#x9;&#x9;&#x9;c-7.9,5.3-18,8-30.2,8c-9.4,0-17.1-1.7-23.1-5.1c-6.7-3.8-10-9.2-10-16.1c0-5.2,2.3-9.7,6.8-13.5c3.7-3.2,8.4-5.5,14-7&#xA;&#x9;&#x9;&#x9;c-3.5-2.5-5.2-5.5-5.2-8.9c0-3.9,1.8-7.6,5.3-10.9c1.4-1.3,3.2-2.7,5.4-4.2l6-3.6c-4.6-1.4-8.3-4-11.1-7.8&#xA;&#x9;&#x9;&#x9;c-3.4-4.3-5.1-9.7-5.1-16.1c0-9.7,3.9-17.6,11.6-23.7c7.1-5.6,15.7-8.4,25.8-8.4c5.8,0,11.1,1,16,2.9h22.8L1033.4,986.3z&#xA;&#x9;&#x9;&#x9; M970.2,1059.1c-9.5,3.1-14.2,8.5-14.2,16.2c0,4.4,2.1,8,6.3,10.7c3.9,2.5,8.5,3.7,14,3.7c8,0,14.8-1.4,20.4-4.2&#xA;&#x9;&#x9;&#x9;c6.1-3,9.2-6.8,9.2-11.7c0-3.1-1.3-5.5-3.8-7.1c-2.7-1.7-7.7-3.2-15.1-4.5L970.2,1059.1z M1000.2,1012.8&#xA;&#x9;&#x9;&#x9;c3.3-6.6,4.9-14.9,4.9-24.7c0-7.1-2.8-10.6-8.4-10.6c-5.1,0-9.4,3.4-12.8,10.3c-3.3,6.7-5,14.9-5,24.7c0,7,2.8,10.5,8.5,10.5&#xA;&#x9;&#x9;&#x9;C992.6,1023,996.9,1019.6,1000.2,1012.8z M1136.5,1041.4c-4.7,5.6-10.1,10.1-16.4,13.6c-7.5,4.2-15.1,6.3-22.8,6.3&#xA;&#x9;&#x9;&#x9;c-17.4,0-26.1-9.3-26.1-27.9c0-15.4,5.5-29.6,16.5-42.4c11.2-13.1,23.8-19.7,37.8-19.7c14.6,0,21.9,5.3,21.9,16&#xA;&#x9;&#x9;&#x9;c0,5.4-2,10.4-6.1,14.9c-3.4,3.9-8.3,7.4-14.7,10.7c-5.1,2.6-11.1,5-17.9,7.1c-2.7,0.8-5.5,1.7-8.5,2.5c-2.2,0.5-4.6,1.1-7.2,1.8&#xA;&#x9;&#x9;&#x9;c-0.7,3.6-1,6.8-1,9.6c0,11,5.2,16.5,15.6,16.5c3.6,0,7.4-1,11.6-3.1c4.7-2.4,9.1-5.8,13.2-10.4L1136.5,1041.4z M1111.8,982.7&#xA;&#x9;&#x9;&#x9;c-3,2.6-5.8,6.2-8.4,10.8c-2.3,3.9-4.2,8.2-6,13c-1.5,4.2-2.6,7.8-3.1,10.9c3.6-1.2,7.2-2.6,10.7-4.3c4.4-2.1,8.2-4.3,11.6-6.7&#xA;&#x9;&#x9;&#x9;c4-2.9,7.1-5.9,9.3-9.1c2.5-3.7,3.7-7.4,3.7-11.3c0-5.2-2.5-7.8-7.5-7.8C1118.6,978.3,1115.2,979.8,1111.8,982.7z M1204.7,933.6&#xA;&#x9;&#x9;&#x9;c1.6-0.2,4.2-0.5,7.7-0.9l19.2-2.1l5.1-0.4c1,0,1.5,0.5,1.5,1.6c0,0.7-0.3,2.3-1,4.9l-22,87.6c-1.1,4.1-1.9,7.5-2.6,10.2&#xA;&#x9;&#x9;&#x9;c-1.5,6.2-2.2,9.8-2.2,10.9c0,2.1,1,3.1,3.1,3.1c2.5,0,5.1-1.7,7.8-5.1c0.9-1.1,1.8-2.5,2.8-4.1l2-3.2l3.5,2.2l-1.5,2.8&#xA;&#x9;&#x9;&#x9;c-0.7,1.2-1.3,2.3-2,3.4c-1.8,2.9-3.6,5.5-5.6,7.6c-2.6,2.7-5.2,4.9-8.1,6.4c-3.4,1.8-6.9,2.8-10.6,2.8c-8.1,0-12.2-3.5-12.2-10.6&#xA;&#x9;&#x9;&#x9;c0-3.1,1.3-10.2,3.9-21.4l17.2-67.7c2.6-10.4,3.9-16.5,3.9-18.1c0-3.7-3.6-5.7-10.8-5.9L1204.7,933.6z"/>
    </g>
  </g>
</svg>